<svg width="350" height="350" viewBox="0 0 350 350" fill="none" xmlns="http://www.w3.org/2000/svg">
<rect x="42" y="247" width="265" height="28" rx="14" fill="#27A8E1"/>
<rect x="150" y="199" width="157" height="28" rx="14" fill="#27A8E1"/>
<rect x="150" y="151" width="157" height="28" rx="14" fill="#27A8E1"/>
<path d="M183.218 79.56C186.69 80.232 189.266 81.408 190.946 83.088C192.738 84.768 193.634 86.728 193.634 88.968C193.634 92.664 192.57 95.352 190.442 97.032C188.426 98.712 185.178 99.384 180.698 99.048C170.618 98.264 162.722 97.76 157.01 97.536C151.41 97.2 144.018 96.976 134.834 96.864C130.69 117.472 126.882 138.192 123.41 159.024C122.178 166.64 120.89 175.488 119.546 185.568C118.202 195.536 117.306 203.6 116.858 209.76C116.634 213.008 115.29 215.528 112.826 217.32C110.362 219 107.394 219.84 103.922 219.84C100.226 219.84 97.3697 218.944 95.3537 217.152C93.3377 215.36 92.3297 213.008 92.3297 210.096C92.3297 207.408 92.7217 202.984 93.5057 196.824C94.4017 190.552 95.4097 184 96.5297 177.168C97.7617 170.336 98.7137 164.4 99.3857 159.36C100.618 150.848 102.018 142.392 103.586 133.992C105.154 125.592 106.722 117.64 108.29 110.136C108.626 108.456 109.018 106.552 109.466 104.424C109.914 102.184 110.418 99.72 110.978 97.032C100.002 97.368 91.3777 98.264 85.1057 99.72C78.8337 101.176 74.3537 103.248 71.6657 105.936C69.0897 108.512 67.8017 111.872 67.8017 116.016C67.8017 119.824 68.9217 123.464 71.1617 126.936C71.6097 127.72 71.8337 128.56 71.8337 129.456C71.8337 131.584 70.5457 133.6 67.9697 135.504C65.5057 137.296 62.9297 138.192 60.2417 138.192C58.3377 138.192 56.7697 137.632 55.5377 136.512C53.2977 134.608 51.4497 131.92 49.9937 128.448C48.5377 124.864 47.8097 120.832 47.8097 116.352C47.8097 106.832 50.8897 99.216 57.0497 93.504C63.3217 87.68 72.7857 83.424 85.4417 80.736C98.2097 78.048 114.562 76.704 134.498 76.704C146.818 76.704 156.618 76.928 163.898 77.376C171.29 77.824 177.73 78.552 183.218 79.56Z" fill="#27A8E1"/>
<rect y="81" width="81" height="20" rx="9.99999" transform="rotate(-90 0 81)" fill="#27A8E1"/>
<rect x="81" y="20" width="81" height="20" rx="9.99999" transform="rotate(-180 81 20)" fill="#27A8E1"/>
<rect x="330" y="81" width="81" height="20" rx="10" transform="rotate(-90 330 81)" fill="#27A8E1"/>
<rect x="269" width="81" height="20" rx="10" fill="#27A8E1"/>
<rect x="81" y="350" width="81" height="20" rx="10" transform="rotate(-180 81 350)" fill="#27A8E1"/>
<rect x="20" y="269" width="81" height="20" rx="10" transform="rotate(90 20 269)" fill="#27A8E1"/>
<rect x="350" y="269" width="81" height="20" rx="10" transform="rotate(90 350 269)" fill="#27A8E1"/>
<rect x="269" y="330" width="81" height="20" rx="10" fill="#27A8E1"/>
</svg>
