<svg width="1378" height="350" viewBox="0 0 1378 350" fill="none" xmlns="http://www.w3.org/2000/svg">
<path d="M459.298 270V155.25H425.548V120.867H541.036V155.25H506.548V270H459.298ZM635.43 265.465C628.821 267.645 621.684 269.438 614.02 270.844C606.356 272.32 598.376 273.059 590.079 273.059C581.009 273.059 572.36 271.863 564.134 269.473C555.907 267.082 548.665 263.355 542.407 258.293C536.149 253.23 531.157 246.832 527.43 239.098C523.774 231.293 521.946 222.012 521.946 211.254C521.946 205.137 522.895 199.477 524.794 194.273C526.692 189 529.259 184.219 532.493 179.93C535.798 175.641 539.63 171.844 543.989 168.539C548.419 165.234 553.13 162.457 558.122 160.207C563.184 157.957 568.387 156.27 573.731 155.145C579.075 153.949 584.313 153.352 589.446 153.352C597.532 153.352 604.669 154.266 610.856 156.094C617.044 157.852 622.177 160.242 626.255 163.266C630.403 166.289 633.532 169.805 635.641 173.812C637.751 177.82 638.805 182.074 638.805 186.574C638.805 192.059 637.856 196.734 635.958 200.602C634.13 204.469 631.634 207.738 628.469 210.41C625.376 213.012 621.755 215.086 617.606 216.633C613.528 218.109 609.204 219.27 604.634 220.113C600.063 220.887 595.387 221.379 590.606 221.59C585.895 221.801 581.395 221.906 577.106 221.906C575.63 221.906 574.188 221.906 572.782 221.906C571.446 221.836 570.11 221.801 568.774 221.801C569.337 225.809 570.427 229.184 572.044 231.926C573.731 234.668 575.805 236.918 578.266 238.676C580.798 240.363 583.68 241.594 586.915 242.367C590.219 243.07 593.735 243.422 597.462 243.422C600.274 243.422 603.262 243.211 606.427 242.789C609.661 242.367 612.895 241.805 616.13 241.102C619.434 240.328 622.704 239.484 625.938 238.57C629.243 237.586 632.407 236.566 635.43 235.512V265.465ZM567.825 205.559C569.512 205.488 571.657 205.383 574.259 205.242C576.93 205.102 579.743 204.855 582.696 204.504C585.649 204.152 588.602 203.66 591.555 203.027C594.509 202.395 597.18 201.586 599.571 200.602C601.962 199.617 603.895 198.387 605.372 196.91C606.848 195.434 607.587 193.641 607.587 191.531C607.587 187.945 606.145 185.098 603.262 182.988C600.45 180.809 596.512 179.719 591.45 179.719C589.13 179.719 586.634 180.07 583.962 180.773C581.29 181.406 578.794 182.672 576.473 184.57C574.153 186.469 572.184 189.105 570.567 192.48C568.95 195.855 568.036 200.215 567.825 205.559ZM752.923 210.727L790.891 270H739.212L717.169 232.137L697.341 270H659.055L691.434 211.359L653.466 156.199H705.145L726.134 192.586L747.333 156.199H785.618L752.923 210.727ZM867.145 273.059C860.606 273.059 854.348 272.25 848.372 270.633C842.395 269.086 837.122 266.449 832.552 262.723C828.052 258.926 824.43 253.934 821.688 247.746C819.016 241.488 817.68 233.719 817.68 224.438V182.355H796.692V175.5L846.368 121.5H863.243V156.199H896.993C896.149 160.418 895.376 164.672 894.673 168.961C894.04 173.25 893.688 177.715 893.618 182.355H863.243V224.016C863.243 226.547 863.419 229.008 863.77 231.398C864.192 233.719 865.001 235.793 866.196 237.621C867.391 239.379 869.114 240.82 871.364 241.945C873.614 243 876.602 243.527 880.329 243.527C882.719 243.527 885.356 243.316 888.239 242.895C891.122 242.402 894.391 241.523 898.048 240.258L900.579 267.574C896.149 269.191 891.052 270.492 885.286 271.477C879.591 272.531 873.544 273.059 867.145 273.059ZM968.923 233.191H1025.98V270H926.208L920.723 232.875C923.887 229.852 927.544 226.723 931.692 223.488C935.841 220.184 940.13 216.809 944.559 213.363C948.989 209.848 953.348 206.262 957.637 202.605C961.927 198.879 965.759 195.082 969.134 191.215C972.509 187.277 975.216 183.234 977.255 179.086C979.364 174.938 980.419 170.684 980.419 166.324C980.419 163.652 979.786 161.402 978.52 159.574C977.325 157.676 975.778 156.164 973.88 155.039C971.981 153.914 969.837 153.105 967.446 152.613C965.126 152.121 962.805 151.875 960.485 151.875C957.602 151.875 954.684 152.086 951.731 152.508C948.778 152.93 945.93 153.457 943.188 154.09C940.446 154.723 937.88 155.461 935.489 156.305C933.169 157.078 931.2 157.852 929.583 158.625L922.833 124.875C930.708 122.203 938.477 120.41 946.141 119.496C953.805 118.512 961.048 118.02 967.868 118.02C978.063 118.02 986.887 119.25 994.341 121.711C1001.86 124.102 1008.09 127.371 1013.01 131.52C1017.93 135.598 1021.55 140.379 1023.87 145.863C1026.26 151.348 1027.46 157.113 1027.46 163.16C1027.46 169.77 1025.88 176.414 1022.71 183.094C1019.62 189.703 1015.4 196.066 1010.06 202.184C1004.78 208.301 998.594 214.031 991.493 219.375C984.391 224.648 976.868 229.254 968.923 233.191ZM1171.53 321.047C1165.34 318.656 1159.54 316.09 1154.13 313.348C1148.71 310.676 1143.68 307.477 1139.04 303.75C1134.4 300.094 1130.18 295.734 1126.39 290.672C1122.59 285.609 1119.22 279.492 1116.26 272.32C1108.6 271.477 1101.74 269.824 1095.7 267.363C1089.65 264.902 1084.34 261.844 1079.77 258.188C1075.2 254.531 1071.3 250.348 1068.06 245.637C1064.83 240.926 1062.19 235.898 1060.15 230.555C1058.11 225.141 1056.64 219.516 1055.72 213.68C1054.81 207.773 1054.35 201.797 1054.35 195.75C1054.35 189.281 1055.02 182.883 1056.36 176.555C1057.69 170.156 1059.7 164.074 1062.37 158.309C1065.04 152.543 1068.41 147.199 1072.49 142.277C1076.57 137.355 1081.35 133.102 1086.84 129.516C1092.32 125.93 1098.51 123.117 1105.4 121.078C1112.36 119.039 1120.06 118.02 1128.5 118.02C1136.93 118.02 1144.6 119.039 1151.49 121.078C1158.45 123.117 1164.67 125.93 1170.16 129.516C1175.71 133.102 1180.53 137.355 1184.61 142.277C1188.68 147.199 1192.06 152.543 1194.73 158.309C1197.47 164.074 1199.51 170.156 1200.85 176.555C1202.18 182.883 1202.85 189.281 1202.85 195.75C1202.85 203.977 1201.94 212.062 1200.11 220.008C1198.35 227.883 1195.47 235.16 1191.46 241.84C1187.52 248.449 1182.32 254.25 1175.85 259.242C1169.45 264.234 1161.61 267.891 1152.33 270.211C1153.39 272.602 1155.15 274.922 1157.61 277.172C1160.07 279.492 1162.95 281.602 1166.25 283.5C1169.63 285.469 1173.25 287.191 1177.12 288.668C1181.06 290.145 1185.03 291.234 1189.04 291.938L1171.53 321.047ZM1101.6 195.75C1101.6 204.188 1102.2 211.395 1103.4 217.371C1104.66 223.348 1106.42 228.234 1108.67 232.031C1110.99 235.828 1113.8 238.605 1117.11 240.363C1120.48 242.121 1124.28 243 1128.5 243C1132.72 243 1136.48 242.121 1139.78 240.363C1143.16 238.605 1146 235.828 1148.32 232.031C1150.72 228.234 1152.51 223.348 1153.7 217.371C1154.97 211.395 1155.6 204.188 1155.6 195.75C1155.6 187.312 1154.97 180.105 1153.7 174.129C1152.51 168.082 1150.72 163.16 1148.32 159.363C1146 155.496 1143.16 152.648 1139.78 150.82C1136.48 148.992 1132.72 148.078 1128.5 148.078C1124.28 148.078 1120.48 148.992 1117.11 150.82C1113.8 152.648 1110.99 155.496 1108.67 159.363C1106.42 163.16 1104.66 168.082 1103.4 174.129C1102.2 180.105 1101.6 187.312 1101.6 195.75ZM1230.7 120.867H1297.77C1308.39 120.867 1317.74 122.273 1325.83 125.086C1333.91 127.828 1340.63 131.484 1345.97 136.055C1351.39 140.555 1355.47 145.688 1358.21 151.453C1360.95 157.148 1362.32 162.914 1362.32 168.75C1362.32 173.32 1361.86 177.855 1360.95 182.355C1360.04 186.785 1358.42 191.004 1356.1 195.012C1353.78 198.949 1350.58 202.535 1346.5 205.77C1342.49 208.934 1337.36 211.5 1331.1 213.469C1332.02 216.422 1333.56 220.078 1335.74 224.438C1337.92 228.797 1340.45 233.508 1343.34 238.57C1346.22 243.633 1349.31 248.871 1352.62 254.285C1355.92 259.699 1359.16 264.938 1362.32 270H1308.32C1305.3 263.18 1302.2 255.551 1299.04 247.113C1295.88 238.605 1293.34 229.359 1291.45 219.375H1277.95V270H1230.7V120.867ZM1285.96 195.75C1291.31 195.75 1295.81 195.047 1299.46 193.641C1303.19 192.234 1306.21 190.406 1308.53 188.156C1310.85 185.906 1312.5 183.375 1313.49 180.562C1314.54 177.75 1315.07 174.938 1315.07 172.125C1315.07 166.57 1314.3 162.035 1312.75 158.52C1311.2 155.004 1309.09 152.262 1306.42 150.293C1303.75 148.254 1300.66 146.883 1297.14 146.18C1293.63 145.477 1289.86 145.125 1285.86 145.125H1277.95V195.75H1285.96Z" fill="#F3F4F6"/>
<rect x="42" y="247" width="265" height="28" rx="14" fill="#27A8E1"/>
<rect x="150" y="199" width="157" height="28" rx="14" fill="#27A8E1"/>
<rect x="150" y="151" width="157" height="28" rx="14" fill="#27A8E1"/>
<path d="M183.218 79.56C186.69 80.232 189.266 81.408 190.946 83.088C192.738 84.768 193.634 86.728 193.634 88.968C193.634 92.664 192.57 95.352 190.442 97.032C188.426 98.712 185.178 99.384 180.698 99.048C170.618 98.264 162.722 97.76 157.01 97.536C151.41 97.2 144.018 96.976 134.834 96.864C130.69 117.472 126.882 138.192 123.41 159.024C122.178 166.64 120.89 175.488 119.546 185.568C118.202 195.536 117.306 203.6 116.858 209.76C116.634 213.008 115.29 215.528 112.826 217.32C110.362 219 107.394 219.84 103.922 219.84C100.226 219.84 97.3697 218.944 95.3537 217.152C93.3377 215.36 92.3297 213.008 92.3297 210.096C92.3297 207.408 92.7217 202.984 93.5057 196.824C94.4017 190.552 95.4097 184 96.5297 177.168C97.7617 170.336 98.7137 164.4 99.3857 159.36C100.618 150.848 102.018 142.392 103.586 133.992C105.154 125.592 106.722 117.64 108.29 110.136C108.626 108.456 109.018 106.552 109.466 104.424C109.914 102.184 110.418 99.72 110.978 97.032C100.002 97.368 91.3777 98.264 85.1057 99.72C78.8337 101.176 74.3537 103.248 71.6657 105.936C69.0897 108.512 67.8017 111.872 67.8017 116.016C67.8017 119.824 68.9217 123.464 71.1617 126.936C71.6097 127.72 71.8337 128.56 71.8337 129.456C71.8337 131.584 70.5457 133.6 67.9697 135.504C65.5057 137.296 62.9297 138.192 60.2417 138.192C58.3377 138.192 56.7697 137.632 55.5377 136.512C53.2977 134.608 51.4497 131.92 49.9937 128.448C48.5377 124.864 47.8097 120.832 47.8097 116.352C47.8097 106.832 50.8897 99.216 57.0497 93.504C63.3217 87.68 72.7857 83.424 85.4417 80.736C98.2097 78.048 114.562 76.704 134.498 76.704C146.818 76.704 156.618 76.928 163.898 77.376C171.29 77.824 177.73 78.552 183.218 79.56Z" fill="#27A8E1"/>
<rect y="81" width="81" height="20" rx="9.99999" transform="rotate(-90 0 81)" fill="#27A8E1"/>
<rect x="81" y="20" width="81" height="20" rx="9.99999" transform="rotate(-180 81 20)" fill="#27A8E1"/>
<rect x="330" y="81" width="81" height="20" rx="10" transform="rotate(-90 330 81)" fill="#27A8E1"/>
<rect x="269" width="81" height="20" rx="10" fill="#27A8E1"/>
<rect x="81" y="350" width="81" height="20" rx="10" transform="rotate(-180 81 350)" fill="#27A8E1"/>
<rect x="20" y="269" width="81" height="20" rx="10" transform="rotate(90 20 269)" fill="#27A8E1"/>
<rect x="350" y="269" width="81" height="20" rx="10" transform="rotate(90 350 269)" fill="#27A8E1"/>
<rect x="269" y="330" width="81" height="20" rx="10" fill="#27A8E1"/>
</svg>
